<svg version="1.1" id="Layer_1" xmlns="http://www.w3.org/2000/svg" xmlns:xlink="http://www.w3.org/1999/xlink" x="0px" y="0px"
	 width="100%" viewBox="0 0 868 707" enable-background="new 0 0 868 707" xml:space="preserve">
<path fill="none" opacity="1.000000" stroke="none" 
	d="
M29.168306,183.975510 
	C26.065184,183.975510 22.962061,183.975510 19.858938,183.975510 
	C19.860863,184.520370 19.862787,185.065216 19.864712,185.610077 
	C23.284676,185.610077 26.704641,185.610077 31.001040,185.724579 
	C31.918650,185.546707 32.836258,185.368820 33.753868,185.190948 
	C33.727848,184.908340 33.701832,184.625732 33.675812,184.343140 
	C32.472446,184.279495 31.269083,184.215851 29.168306,183.975510 
M486.098175,388.297791 
	C486.113556,383.584106 483.891846,385.758423 481.404114,386.989868 
	C480.927490,387.297058 480.450867,387.604218 479.227844,387.988190 
	C475.691437,389.597839 472.155029,391.207489 467.905457,392.894562 
	C444.443878,403.370789 420.998199,413.882935 397.496063,424.267426 
	C395.154816,425.301941 392.469910,425.558746 389.521637,425.855927 
	C389.006714,425.830780 388.491791,425.805603 387.358429,425.399506 
	C386.881470,425.343750 386.404510,425.287994 385.512939,424.900726 
	C385.000214,424.838898 384.487457,424.777100 383.294281,424.286194 
	C381.237061,423.688751 379.179810,423.091309 376.581787,422.105377 
	C374.536255,421.397125 372.483887,420.708099 370.446289,419.977753 
	C338.610626,408.566498 310.958923,390.663330 288.861816,365.061737 
	C250.766983,320.925385 233.967667,269.517944 238.432999,211.278992 
	C238.581253,209.345245 238.638931,207.404541 238.739426,205.455872 
	C234.105713,205.366119 233.948883,205.358444 233.633347,211.807526 
	C229.580322,294.640503 260.585083,360.117157 330.483826,405.958344 
	C344.407349,415.089691 359.540619,422.168915 376.440887,426.716309 
	C378.586456,427.255890 380.731995,427.795502 383.307220,428.726837 
	C383.871674,428.806610 384.436127,428.886414 385.438995,429.204407 
	C385.438995,429.204407 385.937103,429.175537 386.369904,429.540192 
	C386.916168,429.620514 387.462402,429.700806 388.611786,430.098846 
	C389.501740,430.170105 390.391724,430.241364 391.849945,430.832733 
	C398.236847,431.903656 404.623779,432.974579 411.623016,434.273468 
	C412.054535,434.255737 412.486053,434.238037 413.564667,434.556915 
	C416.380402,434.715057 419.196167,434.873199 422.769073,435.255249 
	C423.814423,435.253265 424.859802,435.251312 426.673187,435.553680 
	C433.150726,435.454163 439.628296,435.354614 446.879608,435.404602 
	C447.916595,435.278534 448.953613,435.152466 450.641449,435.232971 
	C453.457916,434.895905 456.274353,434.558838 459.729095,434.342651 
	C460.147034,434.246429 460.564972,434.150177 461.644165,434.235016 
	C466.415649,433.380249 471.187134,432.525452 476.593567,431.733154 
	C477.395569,431.471130 478.197571,431.209137 479.757141,430.998169 
	C482.070526,430.276428 484.383881,429.554718 487.012390,429.030792 
	C487.012390,429.030792 487.335693,428.846619 488.169830,428.858917 
	C489.776794,428.443146 491.404327,428.093719 492.987701,427.601959 
	C549.755737,409.971710 591.236755,374.260925 617.715027,321.249695 
	C628.269470,300.119110 634.780273,277.617828 637.229797,253.229736 
	C637.411133,238.329895 637.615784,223.430252 637.755859,208.530029 
	C637.787109,205.201355 636.285950,204.085846 633.158875,205.658524 
	C633.158875,221.220032 633.158875,236.605438 632.910583,252.756927 
	C632.683472,254.236816 632.456055,255.716675 632.229126,257.196594 
	C622.662903,319.586975 592.109680,368.642548 538.376465,402.187195 
	C523.807373,411.282410 507.491211,417.579102 490.621552,425.822601 
	C489.290161,415.640472 488.199127,407.296600 487.207825,398.463562 
	C487.207825,398.463562 487.015900,398.002747 487.122711,397.236938 
	C486.838043,395.490326 486.553345,393.743744 486.400757,391.242828 
	C486.255859,390.495453 486.110992,389.748047 486.098175,388.297791 
M202.596558,659.354004 
	C187.742676,659.293213 172.888809,659.232483 157.097855,659.075134 
	C127.402061,659.371643 97.706276,659.668152 67.276085,659.621155 
	C56.892361,659.621155 46.508640,659.621155 36.124916,659.621155 
	C36.123608,660.239075 36.122299,660.856995 36.120991,661.474915 
	C46.800793,661.474915 57.480598,661.474915 69.065178,661.615967 
	C79.055046,661.721741 89.044670,661.875183 99.034821,661.924500 
	C132.003799,662.087158 164.972961,662.244934 197.942108,662.253662 
	C199.572784,662.254089 201.203812,660.829224 202.596558,659.354004 
M810.775818,661.732910 
	C819.474365,661.732910 828.172852,661.732910 836.871399,661.732910 
	C836.856628,661.158081 836.841919,660.583313 836.827209,660.008484 
	C827.882324,660.008484 818.937378,660.008484 809.062317,659.889465 
	C782.031311,659.645142 755.000244,659.400818 727.237915,658.829224 
	C709.313965,658.770569 691.390015,658.687073 673.466187,658.713806 
	C672.366577,658.715454 671.268250,659.588867 670.076599,660.816711 
	C671.787170,661.330139 673.496765,662.286255 675.208496,662.290161 
	C699.149353,662.344788 723.090942,662.355347 747.031250,662.199829 
	C767.973572,662.063782 788.914551,661.705444 810.775818,661.732910 
M130.835052,192.013702 
	C131.895126,191.999252 132.955185,191.984787 134.788940,192.212738 
	C148.191132,193.085114 161.593323,193.957489 175.655975,195.012466 
	C176.109100,194.983994 176.562241,194.955505 177.820663,195.127869 
	C195.210571,196.308868 212.600494,197.489883 230.864868,198.880630 
	C234.515518,199.153595 238.162720,199.490784 241.817474,199.687363 
	C252.442062,200.258850 263.164276,201.949158 273.679352,201.102859 
	C313.982819,197.859070 354.220276,193.795715 394.480347,190.016251 
	C395.099091,189.958160 395.691589,189.619797 396.296326,189.412231 
	C395.063995,188.476273 393.971527,188.220596 392.865143,188.122910 
	C370.815887,186.176193 348.769562,184.193909 326.713043,182.332489 
	C308.810669,180.821671 290.895660,179.460403 272.254639,177.790543 
	C271.756470,177.759384 271.257263,177.689240 270.760284,177.702591 
	C192.853989,179.793610 114.947792,181.888458 37.042416,184.013199 
	C36.101852,184.038849 35.171867,184.452393 34.236942,184.684875 
	C35.893761,185.789185 37.454563,186.005081 39.022762,186.105789 
	C47.163609,186.628647 55.306690,187.116455 63.448341,187.626877 
	C85.709534,189.022537 107.970390,190.423447 130.835052,192.013702 
M442.683350,263.696228 
	C441.948425,251.444595 441.213501,239.192963 440.449738,226.460724 
	C426.319611,226.807083 412.634369,227.142548 398.949097,227.477997 
	C398.723083,227.995514 398.497101,228.513031 398.271118,229.030548 
	C403.519958,233.080597 402.184143,238.250778 401.491180,243.345795 
	C401.087555,246.313583 400.903320,249.310440 400.562286,252.287567 
	C394.743073,303.085938 388.908691,353.882599 383.101196,404.682343 
	C382.681183,408.356049 382.442322,412.050507 382.095062,416.010895 
	C383.310333,415.752014 383.815796,415.725739 384.253174,415.539551 
	C405.091064,406.669830 425.895966,397.721466 446.785980,388.976440 
	C449.793396,387.717438 449.475861,385.739807 449.343811,383.380798 
	C447.127716,343.802002 444.937103,304.221771 442.683350,263.696228 
M652.960693,198.296585 
	C716.029480,194.047821 779.098328,189.799057 842.167114,185.550293 
	C842.134399,185.074249 842.101624,184.598190 842.068848,184.122147 
	C781.962524,182.453171 721.858521,180.696213 661.748779,179.160675 
	C639.276672,178.586609 616.714539,177.216583 594.329407,178.528961 
	C556.432495,180.750763 518.643250,184.811676 480.811096,188.126282 
	C479.577423,188.234360 478.369385,188.635147 477.149414,188.899490 
	C478.172180,189.982269 478.980957,190.099030 479.793610,190.173370 
	C503.179047,192.312973 526.627319,193.925491 549.935852,196.708313 
	C583.950012,200.769318 617.920532,202.458344 652.960693,198.296585 
M558.320923,530.794434 
	C562.021118,511.818390 553.736816,497.146912 536.841797,493.223389 
	C532.824036,492.290344 528.598694,491.961243 524.460083,491.893951 
	C513.464783,491.715210 502.464752,491.830994 491.466614,491.829742 
	C489.028503,491.829468 486.590424,491.829681 484.123352,491.829681 
	C484.123352,524.221497 484.123352,555.947693 484.123352,587.658325 
	C488.402588,587.658325 492.294067,587.658325 496.853973,587.658325 
	C496.853973,575.895203 496.853973,564.504395 496.853973,552.817566 
	C503.851227,552.817566 510.172363,552.976624 516.479675,552.750610 
	C519.640381,552.637390 521.612549,553.571838 523.471313,556.264954 
	C530.094238,565.860840 536.992004,575.268860 543.899231,584.664551 
	C544.904053,586.031433 546.440491,587.760437 547.879761,587.912354 
	C552.027405,588.350220 556.251221,588.067017 561.486633,588.067017 
	C552.337341,575.330566 543.972839,563.686646 535.343445,551.674011 
	C546.902893,548.491638 554.794983,542.524170 558.320923,530.794434 
M633.098206,574.401794 
	C643.468811,585.430603 656.418518,589.944824 671.322144,589.597717 
	C693.602661,589.078735 712.211548,573.839355 717.201294,551.980896 
	C722.444397,529.012451 711.991516,505.394073 692.219543,495.534424 
	C670.522888,484.714966 644.572083,490.427551 630.111084,509.206451 
	C615.832886,527.747925 616.919617,555.696045 633.098206,574.401794 
M187.614258,584.134644 
	C187.614258,571.526917 187.614258,558.919250 187.614258,546.022583 
	C205.873352,546.022583 223.423462,546.022583 241.558319,546.022583 
	C241.558319,560.083069 241.558319,573.835327 241.558319,587.801147 
	C246.067169,587.801147 249.990616,587.801147 254.185272,587.801147 
	C254.185272,555.824036 254.185272,524.094543 254.185272,492.105103 
	C249.938217,492.105103 246.029541,492.105103 241.462494,492.105103 
	C241.462494,506.056915 241.462494,519.777527 241.462494,533.489014 
	C223.243088,533.489014 205.683319,533.489014 187.637787,533.489014 
	C187.637787,519.539978 187.637787,505.948364 187.637787,492.246399 
	C183.111069,492.246399 179.081772,492.246399 175.038315,492.246399 
	C175.038315,524.299683 175.038315,555.918762 175.038315,587.991577 
	C178.577866,587.991577 181.904465,588.196533 185.174576,587.857178 
	C186.066498,587.764587 186.788513,586.034851 187.614258,584.134644 
M34.925423,566.499878 
	C34.925423,573.588257 34.925423,580.676636 34.925423,587.645630 
	C39.573143,587.645630 43.459209,587.645630 48.014008,587.645630 
	C48.014008,576.663879 48.014008,566.112793 48.014008,555.274109 
	C57.515053,555.274109 66.338707,555.434265 75.154488,555.238892 
	C90.804703,554.892029 103.666046,545.678772 107.081177,532.631531 
	C112.788605,510.826782 98.531952,492.536469 75.023048,491.923401 
	C62.369354,491.593414 49.699165,491.889526 37.036507,491.930603 
	C36.433327,491.932556 35.831013,492.201019 34.914959,492.420410 
	C34.914959,516.882996 34.914959,541.191467 34.925423,566.499878 
M528.461548,47.889793 
	C559.612854,65.051682 584.821594,88.465340 603.419067,118.900230 
	C613.297668,135.066620 620.708618,152.285904 625.941467,170.462402 
	C626.781189,173.379181 627.818665,175.421158 631.242004,173.347137 
	C609.652283,83.562370 522.614014,10.687413 416.466644,21.107225 
	C317.132874,30.858192 254.161255,107.792763 240.778900,173.896011 
	C244.568665,175.247757 245.248154,172.663071 246.030930,169.916260 
	C252.670227,146.618561 262.801697,124.983368 277.338654,105.549789 
	C315.489197,54.548603 366.580505,27.747814 430.078430,24.997828 
	C464.608734,23.502378 497.221191,31.396694 528.461548,47.889793 
M797.551331,587.847717 
	C804.161194,588.185608 810.881531,589.451660 817.359497,588.680969 
	C834.307861,586.664551 844.413940,571.054382 840.073853,554.804932 
	C837.798218,546.285095 831.764832,541.282532 824.037964,538.208252 
	C816.467957,535.196350 808.563782,533.014832 801.030884,529.921936 
	C794.011597,527.039856 791.290894,522.103638 792.009460,515.446472 
	C792.720398,508.859039 797.073547,504.083069 804.112305,502.564240 
	C811.644958,500.938934 818.673401,502.532593 825.181519,506.524200 
	C827.547791,507.975525 829.816833,509.585388 832.440186,511.328888 
	C833.545837,509.041077 834.217163,506.918488 835.465637,505.220215 
	C838.120300,501.609283 836.929260,499.516113 833.486206,497.306335 
	C823.724548,491.041443 813.158569,489.023224 801.908691,491.162781 
	C788.939148,493.629364 780.626221,502.680359 779.274963,515.129150 
	C777.947388,527.359741 783.694519,536.473389 796.485657,541.933716 
	C800.452515,543.627075 804.677368,544.709595 808.760559,546.138977 
	C812.526123,547.457214 816.424744,548.535889 819.971680,550.307190 
	C826.187195,553.411194 828.766602,558.323181 828.059143,564.460693 
	C827.343689,570.667847 823.289246,575.277832 816.820862,577.061890 
	C810.276001,578.867004 803.825867,578.171814 797.814514,575.266418 
	C792.919189,572.900452 788.350708,569.857971 783.321533,566.931763 
	C782.404724,568.871094 781.674438,571.118469 780.389343,572.983643 
	C777.949280,576.524963 779.145325,578.835876 782.499878,580.549988 
	C787.228333,582.966187 792.017456,585.263794 797.551331,587.847717 
M328.003357,588.080566 
	C333.406311,589.079041 336.125610,586.924133 338.269501,581.648376 
	C345.911987,562.841675 354.203461,544.298340 362.271393,525.664917 
	C364.281097,521.023376 366.373901,516.417847 368.920502,510.688995 
	C370.666931,514.437317 371.971130,517.045715 373.115356,519.722473 
	C382.339325,541.300720 391.502869,562.904846 400.805023,584.449219 
	C401.421082,585.876099 402.905243,587.737183 404.187866,587.911926 
	C407.701538,588.390686 411.323242,588.076904 415.206451,588.076904 
	C414.899872,586.658386 414.861908,585.981934 414.611603,585.396301 
	C401.661774,555.097107 388.642090,524.827698 375.786285,494.488708 
	C373.952271,490.160553 370.530457,492.190735 367.706970,491.677460 
	C364.736725,491.137512 363.313202,492.581421 362.160919,495.277374 
	C352.414154,518.081665 342.521698,540.823730 332.675232,563.585449 
	C329.257751,571.485535 325.846893,579.388428 322.238678,587.739807 
	C324.312042,587.876831 325.764587,587.972839 328.003357,588.080566 
M414.526947,128.026947 
	C407.612976,135.124634 400.699005,142.222321 392.955780,150.171295 
	C395.727417,150.171295 397.613495,150.370514 399.444855,150.138321 
	C409.848206,148.819489 420.250244,146.200867 430.630310,146.303131 
	C444.699646,146.441772 458.746826,148.659424 472.808624,149.928543 
	C474.745300,150.103333 476.711334,149.952652 479.192688,149.952652 
	C465.419861,135.889969 452.484528,122.523636 439.318573,109.388420 
	C437.002319,107.077614 434.196838,108.035683 431.874176,110.453232 
	C426.335419,116.218384 420.652618,121.845146 414.526947,128.026947 
M400.126099,209.774033 
	C394.345520,210.756790 393.635681,212.881714 395.708160,224.012527 
	C399.051086,223.564529 402.537994,223.461395 405.817169,222.582809 
	C412.883209,220.689636 419.848663,218.925049 427.329163,219.476303 
	C430.884308,219.738297 435.415100,219.661041 437.964264,217.717789 
	C442.011475,214.632553 445.513824,216.141434 449.287933,216.766495 
	C458.061493,218.219604 466.807556,219.838684 475.854065,221.441788 
	C475.854065,217.311554 475.854065,213.920776 475.854065,210.616455 
	C467.031799,209.010513 458.558472,207.408417 450.061035,205.946472 
	C445.821747,205.217133 441.440582,203.862061 437.293274,204.321518 
	C425.136292,205.668381 413.064423,207.783401 400.126099,209.774033 
M441.802734,153.925964 
	C439.174683,153.266571 436.577850,152.398453 433.910828,151.999924 
	C430.473846,151.486328 428.844208,152.806381 428.971771,156.712906 
	C429.264923,165.691086 429.109711,174.684021 429.128052,183.670990 
	C429.137726,188.406616 429.129730,193.142273 429.129730,197.637512 
	C433.780396,197.637512 437.518311,197.637512 441.840607,197.637512 
	C441.840607,183.094727 441.840607,168.974564 441.802734,153.925964 
M404.800659,184.498520 
	C404.800659,190.204010 404.800659,195.909515 404.800659,201.886581 
	C407.785522,201.339218 409.889587,200.722519 412.020020,200.611649 
	C416.201416,200.394043 417.422821,198.541214 417.300934,194.296188 
	C416.962372,182.506607 417.208618,170.700577 417.188080,158.901108 
	C417.185364,157.343948 416.974609,155.787155 416.842651,153.991714 
	C413.894104,154.368011 411.595032,154.938980 409.309052,154.890625 
	C405.512634,154.810349 404.620026,156.504425 404.737396,160.069000 
	C404.994232,167.871216 404.797852,175.688324 404.800659,184.498520 
M349.486298,645.707397 
	C345.700836,645.707397 341.915375,645.707397 337.947510,645.707397 
	C337.947510,656.116089 337.947510,665.985718 337.947510,676.370422 
	C344.754791,676.370422 351.221130,676.496582 357.672638,676.244385 
	C358.728577,676.203003 359.719299,674.494019 360.740143,673.555847 
	C359.754456,672.757019 358.836182,671.396606 357.769928,671.268677 
	C354.978516,670.933594 352.122437,671.129211 349.292145,671.126648 
	C342.667908,671.120605 342.179871,670.442749 344.384888,663.431274 
	C347.822906,663.431274 351.483215,663.670349 355.081116,663.301392 
	C356.337372,663.172546 357.439850,661.544312 358.612579,660.600830 
	C357.458588,659.821472 356.349701,658.464478 355.142181,658.370117 
	C351.389526,658.076843 347.599426,658.262756 343.640686,658.262756 
	C343.640686,655.432312 343.640686,653.392517 343.640686,650.929016 
	C348.652679,650.929016 353.292450,651.075562 357.908386,650.808838 
	C358.862732,650.753662 359.728271,649.161316 360.634766,648.277466 
	C359.736420,647.399109 358.927124,645.910095 357.922089,645.763550 
	C355.479187,645.407349 352.945374,645.674866 349.486298,645.707397 
M467.704437,189.473236 
	C467.708557,181.332489 467.743835,173.191605 467.709351,165.051025 
	C467.660248,153.465012 469.851715,155.885193 457.820862,154.436325 
	C457.698578,154.421585 457.555511,154.579636 457.140717,154.820358 
	C457.140717,169.681976 457.140717,184.706711 457.140717,199.874313 
	C460.622925,200.528824 463.839172,201.133362 467.694244,201.857956 
	C467.694244,197.698425 467.694244,194.078812 467.704437,189.473236 
M272.697510,675.594971 
	C273.988312,675.802551 275.279114,676.010193 277.500488,676.367493 
	C275.817963,673.872620 274.924591,672.296021 273.790619,670.917358 
	C271.205841,667.774536 270.124542,665.398499 274.106934,661.891602 
	C276.153229,660.089661 277.199890,655.257385 276.324554,652.566772 
	C275.451843,649.884216 271.854889,646.829346 269.019958,646.313354 
	C263.600403,645.326965 257.873932,646.026794 252.097107,646.026794 
	C252.097107,656.139893 252.097107,666.015625 252.097107,676.114502 
	C261.554901,677.145752 255.447235,668.869690 258.734924,666.242920 
	C262.372345,665.082031 265.041718,666.386475 267.168152,669.892273 
	C268.400085,671.923279 270.455688,673.454712 272.697510,675.594971 
M600.447021,653.603821 
	C600.447021,651.150940 600.447021,648.697998 600.447021,646.075378 
	C598.280090,646.075378 596.722656,646.075378 595.082703,646.075378 
	C595.082703,656.163086 595.082703,665.923950 595.082703,675.871094 
	C596.862427,675.871094 598.396667,675.871094 600.109619,675.871094 
	C600.324097,671.624878 600.521057,667.724731 600.721985,663.746582 
	C605.695801,663.746582 610.088379,663.746582 615.088562,663.746582 
	C615.088562,667.974548 615.088562,671.878723 615.088562,675.943604 
	C617.275146,675.943604 618.848145,675.943604 620.491028,675.943604 
	C620.491028,665.774353 620.491028,655.916687 620.491028,645.949463 
	C618.543030,645.949463 616.955627,645.949463 614.802612,645.949463 
	C614.802612,650.108582 614.802612,653.991577 614.802612,658.116638 
	C610.763306,658.116638 607.283752,658.001343 603.815979,658.153442 
	C601.097534,658.272766 600.275024,656.957458 600.447021,653.603821 
M442.620819,672.788635 
	C443.601349,676.793030 446.065552,676.943237 449.793823,675.466064 
	C445.664124,666.003784 441.761719,656.831299 437.641357,647.757874 
	C436.356506,644.928528 432.093842,644.547974 430.871185,647.201355 
	C426.579407,656.515320 422.629700,665.986877 418.475891,675.569946 
	C422.008636,676.820618 424.383118,676.713074 425.256836,673.186707 
	C426.150177,669.581116 428.501038,668.594543 431.937775,668.965210 
	C433.913208,669.178284 436.043945,668.582458 437.898315,669.096130 
	C439.518127,669.544800 440.848969,671.036560 442.620819,672.788635 
M534.487976,671.367126 
	C533.550720,670.130127 532.613403,668.893066 531.709717,667.700378 
	C524.543945,672.299927 519.606018,672.545105 515.824585,668.789612 
	C512.315491,665.304565 511.873962,658.625549 514.881104,654.517700 
	C518.350769,649.777954 522.443787,649.597900 531.976501,653.917358 
	C532.836548,652.699829 533.731689,651.432678 534.590393,650.217224 
	C525.966248,642.382324 513.580811,644.061707 508.733063,653.342163 
	C504.966583,660.552673 506.592224,668.579590 512.819458,673.519653 
	C518.964844,678.394775 527.251099,677.799927 534.487976,671.367126 
M434.795898,87.896530 
	C434.639282,91.321915 434.800934,94.592216 431.604706,97.325127 
	C430.523132,98.249886 431.092010,103.504501 431.838623,103.732811 
	C434.420441,104.522331 437.616211,104.540443 440.146515,103.639595 
	C441.127075,103.290504 441.986145,98.544876 441.135742,97.789856 
	C436.767242,93.911240 438.235779,88.946953 437.836304,84.369957 
	C437.424774,79.654648 437.357788,74.909286 437.140045,70.177071 
	C436.654510,70.201035 436.168945,70.225006 435.683380,70.248970 
	C435.399658,75.829651 435.115936,81.410332 434.795898,87.896530 
z"/>
<path fill="#D5AE63" opacity="1.000000" stroke="none" 
	d="
M442.712036,264.169067 
	C444.937103,304.221771 447.127716,343.802002 449.343811,383.380798 
	C449.475861,385.739807 449.793396,387.717438 446.785980,388.976440 
	C425.895966,397.721466 405.091064,406.669830 384.253174,415.539551 
	C383.815796,415.725739 383.310333,415.752014 382.095062,416.010895 
	C382.442322,412.050507 382.681183,408.356049 383.101196,404.682343 
	C388.908691,353.882599 394.743073,303.085938 400.562286,252.287567 
	C400.903320,249.310440 401.087555,246.313583 401.491180,243.345795 
	C402.184143,238.250778 403.519958,233.080597 398.271118,229.030548 
	C398.497101,228.513031 398.723083,227.995514 398.949097,227.477997 
	C412.634369,227.142548 426.319611,226.807083 440.449738,226.460724 
	C441.213501,239.192963 441.948425,251.444595 442.712036,264.169067 
z"/>
<path fill="#D3AD62" opacity="1.000000" stroke="none" 
	d="
M652.494995,198.341553 
	C617.920532,202.458344 583.950012,200.769318 549.935852,196.708313 
	C526.627319,193.925491 503.179047,192.312973 479.793610,190.173370 
	C478.980957,190.099030 478.172180,189.982269 477.149414,188.899490 
	C478.369385,188.635147 479.577423,188.234360 480.811096,188.126282 
	C518.643250,184.811676 556.432495,180.750763 594.329407,178.528961 
	C616.714539,177.216583 639.276672,178.586609 661.748779,179.160675 
	C721.858521,180.696213 781.962524,182.453171 842.068848,184.122147 
	C842.101624,184.598190 842.134399,185.074249 842.167114,185.550293 
	C779.098328,189.799057 716.029480,194.047821 652.494995,198.341553 
z"/>
<path fill="#EDECE7" opacity="1.000000" stroke="none" 
	d="
M558.213745,531.179932 
	C554.794983,542.524170 546.902893,548.491638 535.343445,551.674011 
	C543.972839,563.686646 552.337341,575.330566 561.486633,588.067017 
	C556.251221,588.067017 552.027405,588.350220 547.879761,587.912354 
	C546.440491,587.760437 544.904053,586.031433 543.899231,584.664551 
	C536.992004,575.268860 530.094238,565.860840 523.471313,556.264954 
	C521.612549,553.571838 519.640381,552.637390 516.479675,552.750610 
	C510.172363,552.976624 503.851227,552.817566 496.853973,552.817566 
	C496.853973,564.504395 496.853973,575.895203 496.853973,587.658325 
	C492.294067,587.658325 488.402588,587.658325 484.123352,587.658325 
	C484.123352,555.947693 484.123352,524.221497 484.123352,491.829681 
	C486.590424,491.829681 489.028503,491.829468 491.466614,491.829742 
	C502.464752,491.830994 513.464783,491.715210 524.460083,491.893951 
	C528.598694,491.961243 532.824036,492.290344 536.841797,493.223389 
	C553.736816,497.146912 562.021118,511.818390 558.213745,531.179932 
M510.508514,540.787170 
	C517.485901,540.581726 524.540466,540.952515 531.421997,540.030884 
	C540.889282,538.763000 546.336853,531.827698 546.459167,522.388611 
	C546.575928,513.375916 540.775757,505.090881 531.790405,504.331360 
	C520.289246,503.359161 508.643646,504.095306 496.859070,504.095306 
	C496.859070,516.118164 496.859070,528.200439 496.859070,540.790649 
	C501.278564,540.790649 505.395660,540.790649 510.508514,540.787170 
z"/>
<path fill="#EEEDE8" opacity="1.000000" stroke="none" 
	d="
M632.861816,574.136963 
	C616.919617,555.696045 615.832886,527.747925 630.111084,509.206451 
	C644.572083,490.427551 670.522888,484.714966 692.219543,495.534424 
	C711.991516,505.394073 722.444397,529.012451 717.201294,551.980896 
	C712.211548,573.839355 693.602661,589.078735 671.322144,589.597717 
	C656.418518,589.944824 643.468811,585.430603 632.861816,574.136963 
M683.454895,575.254883 
	C702.560120,566.064880 710.392090,545.140137 702.459778,524.479370 
	C696.299866,508.435028 679.441833,499.097656 662.596863,502.400085 
	C641.009155,506.632233 628.501038,528.171021 634.511597,550.762329 
	C640.265503,572.388977 660.968933,583.040833 683.454895,575.254883 
z"/>
<path fill="#EDECE7" opacity="1.000000" stroke="none" 
	d="
M187.601379,584.595581 
	C186.788513,586.034851 186.066498,587.764587 185.174576,587.857178 
	C181.904465,588.196533 178.577866,587.991577 175.038315,587.991577 
	C175.038315,555.918762 175.038315,524.299683 175.038315,492.246399 
	C179.081772,492.246399 183.111069,492.246399 187.637787,492.246399 
	C187.637787,505.948364 187.637787,519.539978 187.637787,533.489014 
	C205.683319,533.489014 223.243088,533.489014 241.462494,533.489014 
	C241.462494,519.777527 241.462494,506.056915 241.462494,492.105103 
	C246.029541,492.105103 249.938217,492.105103 254.185272,492.105103 
	C254.185272,524.094543 254.185272,555.824036 254.185272,587.801147 
	C249.990616,587.801147 246.067169,587.801147 241.558319,587.801147 
	C241.558319,573.835327 241.558319,560.083069 241.558319,546.022583 
	C223.423462,546.022583 205.873352,546.022583 187.614258,546.022583 
	C187.614258,558.919250 187.614258,571.526917 187.601379,584.595581 
z"/>
<path fill="#EDECE7" opacity="1.000000" stroke="none" 
	d="
M34.920189,565.999939 
	C34.914959,541.191467 34.914959,516.882996 34.914959,492.420410 
	C35.831013,492.201019 36.433327,491.932556 37.036507,491.930603 
	C49.699165,491.889526 62.369354,491.593414 75.023048,491.923401 
	C98.531952,492.536469 112.788605,510.826782 107.081177,532.631531 
	C103.666046,545.678772 90.804703,554.892029 75.154488,555.238892 
	C66.338707,555.434265 57.515053,555.274109 48.014008,555.274109 
	C48.014008,566.112793 48.014008,576.663879 48.014008,587.645630 
	C43.459209,587.645630 39.573143,587.645630 34.925423,587.645630 
	C34.925423,580.676636 34.925423,573.588257 34.920189,565.999939 
M74.429771,503.543060 
	C65.688713,503.543060 56.947655,503.543060 48.011337,503.543060 
	C48.011337,517.092590 48.011337,529.980835 48.011337,542.705383 
	C58.856510,542.705383 69.529167,543.632019 79.958893,542.437500 
	C89.839233,541.305847 95.232224,533.214966 95.092789,523.191467 
	C94.937943,512.060120 87.864006,505.035217 74.429771,503.543060 
z"/>
<path fill="#D3AC62" opacity="1.000000" stroke="none" 
	d="
M272.986267,178.032806 
	C290.895660,179.460403 308.810669,180.821671 326.713043,182.332489 
	C348.769562,184.193909 370.815887,186.176193 392.865143,188.122910 
	C393.971527,188.220596 395.063995,188.476273 396.296326,189.412231 
	C395.691589,189.619797 395.099091,189.958160 394.480347,190.016251 
	C354.220276,193.795715 313.982819,197.859070 273.679352,201.102859 
	C263.164276,201.949158 252.442062,200.258850 241.817474,199.687363 
	C238.162720,199.490784 234.515518,199.153595 230.311157,198.467026 
	C226.557739,196.381317 223.324402,193.316422 220.166870,193.392609 
	C216.292496,193.486099 214.399841,192.313461 212.633118,189.447876 
	C211.243362,187.193710 209.534393,185.940567 206.477158,186.831497 
	C196.700439,189.680573 186.842163,192.249786 177.015366,194.927032 
	C176.562241,194.955505 176.109100,194.983994 175.197632,194.569305 
	C173.706589,193.749252 172.641068,193.442352 171.649567,192.977615 
	C170.439285,192.410355 168.318542,191.731873 168.303909,191.063950 
	C168.264694,189.273880 168.626633,186.935883 169.790649,185.806015 
	C171.022995,184.609833 173.331512,184.281601 175.226776,184.059967 
	C179.003647,183.618286 182.840210,183.679749 186.613815,183.219360 
	C191.305649,182.646957 195.935120,181.446945 200.635010,181.088791 
	C205.605270,180.710052 210.706665,181.557953 215.604263,180.852615 
	C221.016495,180.073135 224.823029,182.551895 228.771347,185.302322 
	C229.452179,185.776581 230.034637,186.406693 230.747208,186.818268 
	C234.178421,188.800095 236.245346,187.715576 237.050125,183.798523 
	C237.313095,182.518570 237.913742,180.697998 238.869766,180.273956 
	C243.479431,178.229324 251.574585,180.809296 255.273102,184.725647 
	C256.579956,186.109482 259.215149,187.862305 260.390594,187.377533 
	C262.295410,186.592010 263.430817,184.037704 265.015686,182.346985 
	C266.152222,181.134567 267.358429,179.872742 268.782288,179.079376 
	C269.999939,178.400879 271.571320,178.357224 272.986267,178.032806 
z"/>
<path fill="#CDA65E" opacity="1.000000" stroke="none" 
	d="
M528.135254,47.713093 
	C497.221191,31.396694 464.608734,23.502378 430.078430,24.997828 
	C366.580505,27.747814 315.489197,54.548603 277.338654,105.549789 
	C262.801697,124.983368 252.670227,146.618561 246.030930,169.916260 
	C245.248154,172.663071 244.568665,175.247757 240.778900,173.896011 
	C254.161255,107.792763 317.132874,30.858192 416.466644,21.107225 
	C522.614014,10.687413 609.652283,83.562370 631.242004,173.347137 
	C627.818665,175.421158 626.781189,173.379181 625.941467,170.462402 
	C620.708618,152.285904 613.297668,135.066620 603.419067,118.900230 
	C584.821594,88.465340 559.612854,65.051682 528.135254,47.713093 
z"/>
<path fill="#ECEBE7" opacity="1.000000" stroke="none" 
	d="
M797.166016,587.729919 
	C792.017456,585.263794 787.228333,582.966187 782.499878,580.549988 
	C779.145325,578.835876 777.949280,576.524963 780.389343,572.983643 
	C781.674438,571.118469 782.404724,568.871094 783.321533,566.931763 
	C788.350708,569.857971 792.919189,572.900452 797.814514,575.266418 
	C803.825867,578.171814 810.276001,578.867004 816.820862,577.061890 
	C823.289246,575.277832 827.343689,570.667847 828.059143,564.460693 
	C828.766602,558.323181 826.187195,553.411194 819.971680,550.307190 
	C816.424744,548.535889 812.526123,547.457214 808.760559,546.138977 
	C804.677368,544.709595 800.452515,543.627075 796.485657,541.933716 
	C783.694519,536.473389 777.947388,527.359741 779.274963,515.129150 
	C780.626221,502.680359 788.939148,493.629364 801.908691,491.162781 
	C813.158569,489.023224 823.724548,491.041443 833.486206,497.306335 
	C836.929260,499.516113 838.120300,501.609283 835.465637,505.220215 
	C834.217163,506.918488 833.545837,509.041077 832.440186,511.328888 
	C829.816833,509.585388 827.547791,507.975525 825.181519,506.524200 
	C818.673401,502.532593 811.644958,500.938934 804.112305,502.564240 
	C797.073547,504.083069 792.720398,508.859039 792.009460,515.446472 
	C791.290894,522.103638 794.011597,527.039856 801.030884,529.921936 
	C808.563782,533.014832 816.467957,535.196350 824.037964,538.208252 
	C831.764832,541.282532 837.798218,546.285095 840.073853,554.804932 
	C844.413940,571.054382 834.307861,586.664551 817.359497,588.680969 
	C810.881531,589.451660 804.161194,588.185608 797.166016,587.729919 
z"/>
<path fill="#ECEBE7" opacity="1.000000" stroke="none" 
	d="
M327.610260,588.074707 
	C325.764587,587.972839 324.312042,587.876831 322.238678,587.739807 
	C325.846893,579.388428 329.257751,571.485535 332.675232,563.585449 
	C342.521698,540.823730 352.414154,518.081665 362.160919,495.277374 
	C363.313202,492.581421 364.736725,491.137512 367.706970,491.677460 
	C370.530457,492.190735 373.952271,490.160553 375.786285,494.488708 
	C388.642090,524.827698 401.661774,555.097107 414.611603,585.396301 
	C414.861908,585.981934 414.899872,586.658386 415.206451,588.076904 
	C411.323242,588.076904 407.701538,588.390686 404.187866,587.911926 
	C402.905243,587.737183 401.421082,585.876099 400.805023,584.449219 
	C391.502869,562.904846 382.339325,541.300720 373.115356,519.722473 
	C371.971130,517.045715 370.666931,514.437317 368.920502,510.688995 
	C366.373901,516.417847 364.281097,521.023376 362.271393,525.664917 
	C354.203461,544.298340 345.911987,562.841675 338.269501,581.648376 
	C336.125610,586.924133 333.406311,589.079041 327.610260,588.074707 
z"/>
<path fill="#D3AC62" opacity="1.000000" stroke="none" 
	d="
M449.990601,435.026398 
	C448.953613,435.152466 447.916595,435.278534 446.188782,435.026764 
	C438.967010,434.849060 432.436066,435.049225 425.905151,435.249359 
	C424.859802,435.251312 423.814423,435.253265 422.127472,434.883789 
	C418.629761,434.415009 415.773682,434.317688 412.917572,434.220337 
	C412.486053,434.238037 412.054535,434.255737 411.216461,433.808807 
	C404.300507,432.333649 397.791077,431.323151 391.281677,430.312622 
	C390.391724,430.241364 389.501740,430.170105 388.249908,429.677338 
	C387.237732,429.229065 386.587402,429.202301 385.937103,429.175537 
	C385.937103,429.175537 385.438995,429.204407 385.163391,428.802307 
	C384.217743,428.378510 383.547638,428.356781 382.877563,428.335083 
	C380.731995,427.795502 378.586456,427.255890 376.305786,426.137421 
	C376.487976,424.536987 376.805298,423.515411 377.122589,422.493835 
	C379.179810,423.091309 381.237061,423.688751 383.717468,424.706482 
	C384.736267,425.161896 385.331909,425.197052 385.927551,425.232239 
	C386.404510,425.287994 386.881470,425.343750 387.759247,425.790741 
	C388.754883,426.180145 389.349670,426.178314 389.944489,426.176453 
	C392.469910,425.558746 395.154816,425.301941 397.496063,424.267426 
	C420.998199,413.882935 444.443878,403.370789 468.656982,393.030212 
	C472.087769,393.633698 474.767090,394.101532 477.612976,394.598450 
	C477.479218,396.628113 477.357910,398.468994 477.240021,400.257965 
	C480.780121,399.441284 483.898010,398.722015 487.015900,398.002747 
	C487.015900,398.002747 487.207825,398.463562 486.884827,398.996490 
	C486.575073,401.464233 486.610992,403.399200 486.596283,405.333801 
	C486.575104,408.115173 487.664093,411.951355 486.258911,413.479034 
	C482.102905,417.997406 482.839172,421.498596 486.503571,425.513306 
	C487.182861,426.257538 487.078400,427.717163 487.335693,428.846619 
	C487.335693,428.846619 487.012390,429.030792 486.545410,428.628784 
	C482.237671,425.279449 479.836273,426.077515 478.999542,430.947144 
	C478.197571,431.209137 477.395569,431.471130 476.290466,431.528748 
	C475.987335,431.324371 475.979004,430.976959 475.820129,430.785309 
	C475.109497,430.729767 474.557770,430.865875 473.611572,431.006989 
	C469.139038,432.025940 465.060974,433.039917 460.982910,434.053894 
	C460.564972,434.150177 460.147034,434.246429 459.147888,434.002594 
	C455.707977,434.117157 452.849274,434.571777 449.990601,435.026398 
z"/>
<path fill="#D5AF63" opacity="1.000000" stroke="none" 
	d="
M414.777466,127.777374 
	C420.652618,121.845146 426.335419,116.218384 431.874176,110.453232 
	C434.196838,108.035683 437.002319,107.077614 439.318573,109.388420 
	C452.484528,122.523636 465.419861,135.889969 479.192688,149.952652 
	C476.711334,149.952652 474.745300,150.103333 472.808624,149.928543 
	C458.746826,148.659424 444.699646,146.441772 430.630310,146.303131 
	C420.250244,146.200867 409.848206,148.819489 399.444855,150.138321 
	C397.613495,150.370514 395.727417,150.171295 392.955780,150.171295 
	C400.699005,142.222321 407.612976,135.124634 414.777466,127.777374 
z"/>
<path fill="#CAA45F" opacity="1.000000" stroke="none" 
	d="
M376.852173,422.299622 
	C376.805298,423.515411 376.487976,424.536987 376.010742,425.928314 
	C359.540619,422.168915 344.407349,415.089691 330.483826,405.958344 
	C260.585083,360.117157 229.580322,294.640503 233.633347,211.807526 
	C233.948883,205.358444 234.105713,205.366119 238.739426,205.455872 
	C238.638931,207.404541 238.581253,209.345245 238.432999,211.278992 
	C233.967667,269.517944 250.766983,320.925385 288.861816,365.061737 
	C310.958923,390.663330 338.610626,408.566498 370.446289,419.977753 
	C372.483887,420.708099 374.536255,421.397125 376.852173,422.299622 
z"/>
<path fill="#D5B064" opacity="1.000000" stroke="none" 
	d="
M272.620453,177.911667 
	C271.571320,178.357224 269.999939,178.400879 268.782288,179.079376 
	C267.358429,179.872742 266.152222,181.134567 265.015686,182.346985 
	C263.430817,184.037704 262.295410,186.592010 260.390594,187.377533 
	C259.215149,187.862305 256.579956,186.109482 255.273102,184.725647 
	C251.574585,180.809296 243.479431,178.229324 238.869766,180.273956 
	C237.913742,180.697998 237.313095,182.518570 237.050125,183.798523 
	C236.245346,187.715576 234.178421,188.800095 230.747208,186.818268 
	C230.034637,186.406693 229.452179,185.776581 228.771347,185.302322 
	C224.823029,182.551895 221.016495,180.073135 215.604263,180.852615 
	C210.706665,181.557953 205.605270,180.710052 200.635010,181.088791 
	C195.935120,181.446945 191.305649,182.646957 186.613815,183.219360 
	C182.840210,183.679749 179.003647,183.618286 175.226776,184.059967 
	C173.331512,184.281601 171.022995,184.609833 169.790649,185.806015 
	C168.626633,186.935883 168.264694,189.273880 168.303909,191.063950 
	C168.318542,191.731873 170.439285,192.410355 171.649567,192.977615 
	C172.641068,193.442352 173.706589,193.749252 174.867401,194.477997 
	C161.593323,193.957489 148.191132,193.085114 134.693115,191.844101 
	C136.619171,191.115433 138.641083,190.755417 140.730347,190.383408 
	C138.309052,183.457214 134.230270,181.542709 128.315521,184.266006 
	C128.951202,186.773163 129.591293,189.297714 130.231384,191.822281 
	C107.970390,190.423447 85.709534,189.022537 63.448341,187.626877 
	C55.306690,187.116455 47.163609,186.628647 39.022762,186.105789 
	C37.454563,186.005081 35.893761,185.789185 34.236942,184.684875 
	C35.171867,184.452393 36.101852,184.038849 37.042416,184.013199 
	C114.947792,181.888458 192.853989,179.793610 270.760284,177.702591 
	C271.257263,177.689240 271.756470,177.759384 272.620453,177.911667 
z"/>
<path fill="#D1AA61" opacity="1.000000" stroke="none" 
	d="
M487.752747,428.852783 
	C487.078400,427.717163 487.182861,426.257538 486.503571,425.513306 
	C482.839172,421.498596 482.102905,417.997406 486.258911,413.479034 
	C487.664093,411.951355 486.575104,408.115173 486.596283,405.333801 
	C486.610992,403.399200 486.575073,401.464233 486.834961,399.241058 
	C488.199127,407.296600 489.290161,415.640472 490.621552,425.822601 
	C507.491211,417.579102 523.807373,411.282410 538.376465,402.187195 
	C592.109680,368.642548 622.662903,319.586975 632.229126,257.196594 
	C632.456055,255.716675 632.683472,254.236816 633.381836,252.253174 
	C634.447937,249.666077 635.042847,247.582733 635.544128,245.827255 
	C635.989380,248.369553 636.481323,251.178162 636.973267,253.986786 
	C634.780273,277.617828 628.269470,300.119110 617.715027,321.249695 
	C591.236755,374.260925 549.755737,409.971710 492.987701,427.601959 
	C491.404327,428.093719 489.776794,428.443146 487.752747,428.852783 
z"/>
<path fill="#D2AC63" opacity="1.000000" stroke="none" 
	d="
M400.542664,209.685776 
	C413.064423,207.783401 425.136292,205.668381 437.293274,204.321518 
	C441.440582,203.862061 445.821747,205.217133 450.061035,205.946472 
	C458.558472,207.408417 467.031799,209.010513 475.854065,210.616455 
	C475.854065,213.920776 475.854065,217.311554 475.854065,221.441788 
	C466.807556,219.838684 458.061493,218.219604 449.287933,216.766495 
	C445.513824,216.141434 442.011475,214.632553 437.964264,217.717789 
	C435.415100,219.661041 430.884308,219.738297 427.329163,219.476303 
	C419.848663,218.925049 412.883209,220.689636 405.817169,222.582809 
	C402.537994,223.461395 399.051086,223.564529 395.708160,224.012527 
	C393.635681,212.881714 394.345520,210.756790 400.542664,209.685776 
z"/>
<path fill="#CCA75F" opacity="1.000000" stroke="none" 
	d="
M441.821655,154.390182 
	C441.840607,168.974564 441.840607,183.094727 441.840607,197.637512 
	C437.518311,197.637512 433.780396,197.637512 429.129730,197.637512 
	C429.129730,193.142273 429.137726,188.406616 429.128052,183.670990 
	C429.109711,174.684021 429.264923,165.691086 428.971771,156.712906 
	C428.844208,152.806381 430.473846,151.486328 433.910828,151.999924 
	C436.577850,152.398453 439.174683,153.266571 441.821655,154.390182 
z"/>
<path fill="#D0AB62" opacity="1.000000" stroke="none" 
	d="
M404.793640,183.998932 
	C404.797852,175.688324 404.994232,167.871216 404.737396,160.069000 
	C404.620026,156.504425 405.512634,154.810349 409.309052,154.890625 
	C411.595032,154.938980 413.894104,154.368011 416.842651,153.991714 
	C416.974609,155.787155 417.185364,157.343948 417.188080,158.901108 
	C417.208618,170.700577 416.962372,182.506607 417.300934,194.296188 
	C417.422821,198.541214 416.201416,200.394043 412.020020,200.611649 
	C409.889587,200.722519 407.785522,201.339218 404.800659,201.886581 
	C404.800659,195.909515 404.800659,190.204010 404.793640,183.998932 
z"/>
<path fill="#C8A45D" opacity="1.000000" stroke="none" 
	d="
M349.967224,645.699280 
	C352.945374,645.674866 355.479187,645.407349 357.922089,645.763550 
	C358.927124,645.910095 359.736420,647.399109 360.634766,648.277466 
	C359.728271,649.161316 358.862732,650.753662 357.908386,650.808838 
	C353.292450,651.075562 348.652679,650.929016 343.640686,650.929016 
	C343.640686,653.392517 343.640686,655.432312 343.640686,658.262756 
	C347.599426,658.262756 351.389526,658.076843 355.142181,658.370117 
	C356.349701,658.464478 357.458588,659.821472 358.612549,660.600830 
	C357.439850,661.544312 356.337372,663.172546 355.081116,663.301392 
	C351.483215,663.670349 347.822906,663.431274 344.384888,663.431274 
	C342.179871,670.442749 342.667908,671.120605 349.292145,671.126648 
	C352.122437,671.129211 354.978516,670.933594 357.769928,671.268677 
	C358.836182,671.396606 359.754456,672.757019 360.740143,673.555847 
	C359.719299,674.494019 358.728577,676.203003 357.672638,676.244385 
	C351.221130,676.496582 344.754791,676.370422 337.947510,676.370422 
	C337.947510,665.985718 337.947510,656.116089 337.947510,645.707397 
	C341.915375,645.707397 345.700836,645.707397 349.967224,645.699280 
z"/>
<path fill="#CFAA61" opacity="1.000000" stroke="none" 
	d="
M467.699341,189.966217 
	C467.694244,194.078812 467.694244,197.698425 467.694244,201.857956 
	C463.839172,201.133362 460.622925,200.528824 457.140717,199.874313 
	C457.140717,184.706711 457.140717,169.681976 457.140717,154.820358 
	C457.555511,154.579636 457.698578,154.421585 457.820862,154.436325 
	C469.851715,155.885193 467.660248,153.465012 467.709351,165.051025 
	C467.743835,173.191605 467.708557,181.332489 467.699341,189.966217 
z"/>
<path fill="#C8A45D" opacity="1.000000" stroke="none" 
	d="
M272.419067,675.402954 
	C270.455688,673.454712 268.400085,671.923279 267.168152,669.892273 
	C265.041718,666.386475 262.372345,665.082031 258.734924,666.242920 
	C255.447235,668.869690 261.554901,677.145752 252.097107,676.114502 
	C252.097107,666.015625 252.097107,656.139893 252.097107,646.026794 
	C257.873932,646.026794 263.600403,645.326965 269.019958,646.313354 
	C271.854889,646.829346 275.451843,649.884216 276.324554,652.566772 
	C277.199890,655.257385 276.153229,660.089661 274.106934,661.891602 
	C270.124542,665.398499 271.205841,667.774536 273.790619,670.917358 
	C274.924591,672.296021 275.817963,673.872620 277.500488,676.367493 
	C275.279114,676.010193 273.988312,675.802551 272.419067,675.402954 
M266.980804,651.007019 
	C263.937042,651.007019 260.893280,651.007019 257.775452,651.007019 
	C257.775452,654.614685 257.775452,657.496338 257.775452,660.778381 
	C260.719116,660.778381 263.440674,661.265076 265.864380,660.624573 
	C267.809509,660.110596 270.589081,658.414551 270.821930,656.906799 
	C271.087158,655.190002 268.936584,653.100098 266.980804,651.007019 
z"/>
<path fill="#CFAA61" opacity="1.000000" stroke="none" 
	d="
M600.453979,654.073364 
	C600.275024,656.957458 601.097534,658.272766 603.815979,658.153442 
	C607.283752,658.001343 610.763306,658.116638 614.802612,658.116638 
	C614.802612,653.991577 614.802612,650.108582 614.802612,645.949463 
	C616.955627,645.949463 618.543030,645.949463 620.491028,645.949463 
	C620.491028,655.916687 620.491028,665.774353 620.491028,675.943604 
	C618.848145,675.943604 617.275146,675.943604 615.088562,675.943604 
	C615.088562,671.878723 615.088562,667.974548 615.088562,663.746582 
	C610.088379,663.746582 605.695801,663.746582 600.721985,663.746582 
	C600.521057,667.724731 600.324097,671.624878 600.109619,675.871094 
	C598.396667,675.871094 596.862427,675.871094 595.082703,675.871094 
	C595.082703,665.923950 595.082703,656.163086 595.082703,646.075378 
	C596.722656,646.075378 598.280090,646.075378 600.447021,646.075378 
	C600.447021,648.697998 600.447021,651.150940 600.453979,654.073364 
z"/>
<path fill="#CCA75F" opacity="1.000000" stroke="none" 
	d="
M442.464142,672.428101 
	C440.848969,671.036560 439.518127,669.544800 437.898315,669.096130 
	C436.043945,668.582458 433.913208,669.178284 431.937775,668.965210 
	C428.501038,668.594543 426.150177,669.581116 425.256836,673.186707 
	C424.383118,676.713074 422.008636,676.820618 418.475891,675.569946 
	C422.629700,665.986877 426.579407,656.515320 430.871185,647.201355 
	C432.093842,644.547974 436.356506,644.928528 437.641357,647.757874 
	C441.761719,656.831299 445.664124,666.003784 449.793823,675.466064 
	C446.065552,676.943237 443.601349,676.793030 442.464142,672.428101 
M431.035126,663.909119 
	C433.459137,663.909119 435.883179,663.909119 439.006378,663.909119 
	C437.318237,660.149231 435.915375,657.024658 434.512482,653.900085 
	C434.069519,653.923645 433.626556,653.947205 433.183624,653.970764 
	C432.214722,657.170288 431.245850,660.369751 431.035126,663.909119 
z"/>
<path fill="#CAA45F" opacity="1.000000" stroke="none" 
	d="
M534.349426,671.675537 
	C527.251099,677.799927 518.964844,678.394775 512.819458,673.519653 
	C506.592224,668.579590 504.966583,660.552673 508.733063,653.342163 
	C513.580811,644.061707 525.966248,642.382324 534.590393,650.217224 
	C533.731689,651.432678 532.836548,652.699829 531.976501,653.917358 
	C522.443787,649.597900 518.350769,649.777954 514.881104,654.517700 
	C511.873962,658.625549 512.315491,665.304565 515.824585,668.789612 
	C519.606018,672.545105 524.543945,672.299927 531.709717,667.700378 
	C532.613403,668.893066 533.550720,670.130127 534.349426,671.675537 
z"/>
<path fill="#C5A35D" opacity="1.000000" stroke="none" 
	d="
M727.969238,659.156494 
	C755.000244,659.400818 782.031311,659.645142 809.504700,660.188965 
	C809.871277,660.803101 809.840942,661.122009 809.856079,661.445251 
	C788.914551,661.705444 767.973572,662.063782 747.031250,662.199829 
	C723.090942,662.355347 699.149353,662.344788 675.208496,662.290161 
	C673.496765,662.286255 671.787170,661.330139 670.578491,660.391113 
	C688.111877,659.940063 705.143433,659.937683 722.174683,659.857361 
	C724.107239,659.848267 726.037781,659.400757 727.969238,659.156494 
z"/>
<path fill="#C5A35D" opacity="1.000000" stroke="none" 
	d="
M68.010483,659.964722 
	C97.706276,659.668152 127.402061,659.371643 157.911682,659.337646 
	C160.534714,659.691772 162.343445,659.852173 164.153183,659.864075 
	C177.046906,659.949036 189.940826,660.003723 202.834686,660.067993 
	C201.203812,660.829224 199.572784,662.254089 197.942108,662.253662 
	C164.972961,662.244934 132.003799,662.087158 99.034821,661.924500 
	C89.044670,661.875183 79.055046,661.721741 68.600800,661.292664 
	C68.094452,660.634460 68.052467,660.299622 68.010483,659.964722 
z"/>
<path fill="#D5B064" opacity="1.000000" stroke="none" 
	d="
M177.418015,195.027451 
	C186.842163,192.249786 196.700439,189.680573 206.477158,186.831497 
	C209.534393,185.940567 211.243362,187.193710 212.633118,189.447876 
	C214.399841,192.313461 216.292496,193.486099 220.166870,193.392609 
	C223.324402,193.316422 226.557739,196.381317 229.873932,198.362152 
	C212.600494,197.489883 195.210571,196.308868 177.418015,195.027451 
z"/>
<path fill="#D4AD66" opacity="1.000000" stroke="none" 
	d="
M637.101562,253.608261 
	C636.481323,251.178162 635.989380,248.369553 635.544128,245.827255 
	C635.042847,247.582733 634.447937,249.666077 633.505981,251.870148 
	C633.158875,236.605438 633.158875,221.220032 633.158875,205.658524 
	C636.285950,204.085846 637.787109,205.201355 637.755859,208.530029 
	C637.615784,223.430252 637.411133,238.329895 637.101562,253.608261 
z"/>
<path fill="#CCA75F" opacity="1.000000" stroke="none" 
	d="
M434.814056,87.443771 
	C435.115936,81.410332 435.399658,75.829651 435.683380,70.248970 
	C436.168945,70.225006 436.654510,70.201035 437.140045,70.177071 
	C437.357788,74.909286 437.424774,79.654648 437.836304,84.369957 
	C438.235779,88.946953 436.767242,93.911240 441.135742,97.789856 
	C441.986145,98.544876 441.127075,103.290504 440.146515,103.639595 
	C437.616211,104.540443 434.420441,104.522331 431.838623,103.732811 
	C431.092010,103.504501 430.523132,98.249886 431.604706,97.325127 
	C434.800934,94.592216 434.639282,91.321915 434.814056,87.443771 
z"/>
<path fill="#9B824A" opacity="1.000000" stroke="none" 
	d="
M727.603577,658.992920 
	C726.037781,659.400757 724.107239,659.848267 722.174683,659.857361 
	C705.143433,659.937683 688.111877,659.940063 670.624878,660.011108 
	C671.268250,659.588867 672.366577,658.715454 673.466187,658.713806 
	C691.390015,658.687073 709.313965,658.770569 727.603577,658.992920 
z"/>
<path fill="#D1AA61" opacity="1.000000" stroke="none" 
	d="
M487.069305,397.619843 
	C483.898010,398.722015 480.780121,399.441284 477.240021,400.257965 
	C477.357910,398.468994 477.479218,396.628113 477.612976,394.598450 
	C474.767090,394.101532 472.087769,393.633698 469.013550,392.991516 
	C472.155029,391.207489 475.691437,389.597839 479.621338,388.347076 
	C480.438385,392.959381 483.726624,391.769318 486.268677,391.997131 
	C486.553345,393.743744 486.838043,395.490326 487.069305,397.619843 
z"/>
<path fill="#957D47" opacity="1.000000" stroke="none" 
	d="
M67.643280,659.792969 
	C68.052467,660.299622 68.094452,660.634460 68.148415,661.222168 
	C57.480598,661.474915 46.800793,661.474915 36.120991,661.474915 
	C36.122299,660.856995 36.123608,660.239075 36.124916,659.621155 
	C46.508640,659.621155 56.892361,659.621155 67.643280,659.792969 
z"/>
<path fill="#957D47" opacity="1.000000" stroke="none" 
	d="
M202.715622,659.710999 
	C189.940826,660.003723 177.046906,659.949036 164.153183,659.864075 
	C162.343445,659.852173 160.534714,659.691772 158.380219,659.385864 
	C172.888809,659.232483 187.742676,659.293213 202.715622,659.710999 
z"/>
<path fill="#D3AC62" opacity="1.000000" stroke="none" 
	d="
M130.533218,191.917999 
	C129.591293,189.297714 128.951202,186.773163 128.315521,184.266006 
	C134.230270,181.542709 138.309052,183.457214 140.730347,190.383408 
	C138.641083,190.755417 136.619171,191.115433 134.306274,191.722900 
	C132.955185,191.984787 131.895126,191.999252 130.533218,191.917999 
z"/>
<path fill="#9B824A" opacity="1.000000" stroke="none" 
	d="
M810.315918,661.589111 
	C809.840942,661.122009 809.871277,660.803101 809.969727,660.248535 
	C818.937378,660.008484 827.882324,660.008484 836.827209,660.008484 
	C836.841919,660.583313 836.856628,661.158081 836.871399,661.732910 
	C828.172852,661.732910 819.474365,661.732910 810.315918,661.589111 
z"/>
<path fill="#CAA45F" opacity="1.000000" stroke="none" 
	d="
M426.289185,435.401520 
	C432.436066,435.049225 438.967010,434.849060 445.801880,434.952026 
	C439.628296,435.354614 433.150726,435.454163 426.289185,435.401520 
z"/>
<path fill="#CAA45F" opacity="1.000000" stroke="none" 
	d="
M391.565796,430.572693 
	C397.791077,431.323151 404.300507,432.333649 410.910278,433.694824 
	C404.623779,432.974579 398.236847,431.903656 391.565796,430.572693 
z"/>
<path fill="#CAA45F" opacity="1.000000" stroke="none" 
	d="
M461.313538,434.144470 
	C465.060974,433.039917 469.139038,432.025940 473.940552,431.006409 
	C475.102325,430.992920 475.540649,430.984924 475.979004,430.976929 
	C475.979004,430.976959 475.987335,431.324371 475.972961,431.497528 
	C471.187134,432.525452 466.415649,433.380249 461.313538,434.144470 
z"/>
<path fill="#D3AC62" opacity="1.000000" stroke="none" 
	d="
M486.334717,391.619995 
	C483.726624,391.769318 480.438385,392.959381 479.994568,388.308685 
	C480.450867,387.604218 480.927490,387.297058 481.865479,387.271851 
	C483.539917,388.036133 484.753021,388.518402 485.966125,389.000671 
	C486.110992,389.748047 486.255859,390.495453 486.334717,391.619995 
z"/>
<path fill="#D1AA61" opacity="1.000000" stroke="none" 
	d="
M479.378357,430.972656 
	C479.836273,426.077515 482.237671,425.279449 486.387817,428.529877 
	C484.383881,429.554718 482.070526,430.276428 479.378357,430.972656 
z"/>
<path fill="#9B824A" opacity="1.000000" stroke="none" 
	d="
M30.124605,185.610077 
	C26.704641,185.610077 23.284676,185.610077 19.864712,185.610077 
	C19.862787,185.065216 19.860863,184.520370 19.858938,183.975510 
	C22.962061,183.975510 26.065184,183.975510 29.624870,184.307480 
	C30.155558,184.960342 30.169947,185.283875 30.124605,185.610077 
z"/>
<path fill="#CAA45F" opacity="1.000000" stroke="none" 
	d="
M413.241119,434.388611 
	C415.773682,434.317688 418.629761,434.415009 421.748901,434.771851 
	C419.196167,434.873199 416.380402,434.715057 413.241119,434.388611 
z"/>
<path fill="#CAA45F" opacity="1.000000" stroke="none" 
	d="
M450.316040,435.129700 
	C452.849274,434.571777 455.707977,434.117157 458.828735,433.942139 
	C456.274353,434.558838 453.457916,434.895905 450.316040,435.129700 
z"/>
<path fill="#D1AA61" opacity="1.000000" stroke="none" 
	d="
M486.032135,388.649231 
	C484.753021,388.518402 483.539917,388.036133 482.156128,387.257935 
	C483.891846,385.758423 486.113556,383.584106 486.032135,388.649231 
z"/>
<path fill="#D5B064" opacity="1.000000" stroke="none" 
	d="
M30.562822,185.667328 
	C30.169947,185.283875 30.155558,184.960342 30.073578,184.395828 
	C31.269083,184.215851 32.472446,184.279495 33.675812,184.343140 
	C33.701832,184.625732 33.727848,184.908340 33.753868,185.190948 
	C32.836258,185.368820 31.918650,185.546707 30.562822,185.667328 
z"/>
<path fill="#CAA45F" opacity="1.000000" stroke="none" 
	d="
M385.720245,425.066467 
	C385.331909,425.197052 384.736267,425.161896 384.057678,424.921021 
	C384.487457,424.777100 385.000214,424.838898 385.720245,425.066467 
z"/>
<path fill="#CAA45F" opacity="1.000000" stroke="none" 
	d="
M389.733063,426.016174 
	C389.349670,426.178314 388.754883,426.180145 388.068481,425.981201 
	C388.491791,425.805603 389.006714,425.830780 389.733063,426.016174 
z"/>
<path fill="#CAA45F" opacity="1.000000" stroke="none" 
	d="
M383.092407,428.530945 
	C383.547638,428.356781 384.217743,428.378510 384.944214,428.683197 
	C384.436127,428.886414 383.871674,428.806610 383.092407,428.530945 
z"/>
<path fill="#CAA45F" opacity="1.000000" stroke="none" 
	d="
M386.153503,429.357849 
	C386.587402,429.202301 387.237732,429.229065 387.948364,429.518494 
	C387.462402,429.700806 386.916168,429.620514 386.153503,429.357849 
z"/>
<path fill="none" opacity="1.000000" stroke="none" 
	d="
M510.010620,540.788940 
	C505.395660,540.790649 501.278564,540.790649 496.859070,540.790649 
	C496.859070,528.200439 496.859070,516.118164 496.859070,504.095306 
	C508.643646,504.095306 520.289246,503.359161 531.790405,504.331360 
	C540.775757,505.090881 546.575928,513.375916 546.459167,522.388611 
	C546.336853,531.827698 540.889282,538.763000 531.421997,540.030884 
	C524.540466,540.952515 517.485901,540.581726 510.010620,540.788940 
z"/>
<path fill="none" opacity="1.000000" stroke="none" 
	d="
M683.098877,575.416016 
	C660.968933,583.040833 640.265503,572.388977 634.511597,550.762329 
	C628.501038,528.171021 641.009155,506.632233 662.596863,502.400085 
	C679.441833,499.097656 696.299866,508.435028 702.459778,524.479370 
	C710.392090,545.140137 702.560120,566.064880 683.098877,575.416016 
z"/>
<path fill="none" opacity="1.000000" stroke="none" 
	d="
M74.888084,503.562469 
	C87.864006,505.035217 94.937943,512.060120 95.092789,523.191467 
	C95.232224,533.214966 89.839233,541.305847 79.958893,542.437500 
	C69.529167,543.632019 58.856510,542.705383 48.011337,542.705383 
	C48.011337,529.980835 48.011337,517.092590 48.011337,503.543060 
	C56.947655,503.543060 65.688713,503.543060 74.888084,503.562469 
z"/>
<path fill="#D1AA61" opacity="1.000000" stroke="none" 
	d="
M475.820129,430.785278 
	C475.540649,430.984924 475.102325,430.992920 474.335022,431.001465 
	C474.557770,430.865875 475.109497,430.729767 475.820129,430.785278 
z"/>
<path fill="none" opacity="1.000000" stroke="none" 
	d="
M267.408417,651.089722 
	C268.936584,653.100098 271.087158,655.190002 270.821930,656.906799 
	C270.589081,658.414551 267.809509,660.110596 265.864380,660.624573 
	C263.440674,661.265076 260.719116,660.778381 257.775452,660.778381 
	C257.775452,657.496338 257.775452,654.614685 257.775452,651.007019 
	C260.893280,651.007019 263.937042,651.007019 267.408417,651.089722 
z"/>
<path fill="none" opacity="1.000000" stroke="none" 
	d="
M430.656067,663.739197 
	C431.245850,660.369751 432.214722,657.170288 433.183624,653.970764 
	C433.626556,653.947205 434.069519,653.923645 434.512482,653.900085 
	C435.915375,657.024658 437.318237,660.149231 439.006378,663.909119 
	C435.883179,663.909119 433.459137,663.909119 430.656067,663.739197 
z"/>
</svg>