<svg 
  viewBox="0 0 1254 1254" 
  xmlns="http://www.w3.org/2000/svg"
>
  <g 
    fill="none" 
    stroke="#D1A960"
    strokeWidth="8"
    strokeLinecap="round" 
    strokeLinejoin="round"
  >
    <path d="
      M 821.00 417.00 
      C 802.26 328.45 715.63 262.80 626.00 263.00 C 536.37 263.20 450.02 328.50 431.00 417.00
      C 439.60 413.57 439.99 398.32 444.68 389.68 C 449.37 381.03 452.56 371.31 458.08 363.08 C 463.60 354.84 468.41 346.45 474.75 338.75 C 481.09 331.05 487.42 325.47 494.75 318.75 C 502.08 312.03 509.27 306.04 517.75 300.75 C 526.23 295.47 533.73 290.50 543.31 286.31 C 552.88 282.11 562.43 277.89 572.98 274.98 C 583.52 272.06 595.54 270.28 607.00 269.00 C 618.45 267.72 634.57 267.47 646.00 269.00 C 657.43 270.53 669.43 271.97 679.93 275.07 C 690.42 278.18 700.17 282.18 709.77 286.23 C 719.38 290.28 726.40 295.92 734.92 301.08 C 743.44 306.24 750.31 312.68 757.77 319.23 C 765.23 325.78 771.00 331.89 777.70 339.30 C 784.39 346.72 788.72 355.59 794.25 363.75 C 799.77 371.92 803.47 381.31 808.03 389.98 C 812.58 398.64 812.32 413.49 821.00 417.00 Z"
    />
  </g>
</svg>
