<svg version="1.1" id="Layer_1" xmlns="http://www.w3.org/2000/svg" xmlns:xlink="http://www.w3.org/1999/xlink" x="0px" y="0px"
	 width="100%" viewBox="0 0 868 707" enable-background="new 0 0 868 707" xml:space="preserve">
<path fill="#C6A85A" opacity="1.000000" stroke="none" 
	d="
M29.168306,183.975510 
	C26.065184,183.975510 22.962061,183.975510 19.858938,183.975510 
	C19.860863,184.520370 19.862787,185.065216 19.864712,185.610077 
	C23.284676,185.610077 26.704641,185.610077 31.001040,185.724579 
	C31.918650,185.546707 32.836258,185.368820 33.753868,185.190948 
	C33.727848,184.908340 33.701832,184.625732 33.675812,184.343140 
	C32.472446,184.279495 31.269083,184.215851 29.168306,183.975510 
M486.098175,388.297791 
	C486.113556,383.584106 483.891846,385.758423 481.404114,386.989868 
	C480.927490,387.297058 480.450867,387.604218 479.227844,387.988190 
	C475.691437,389.597839 472.155029,391.207489 467.905457,392.894562 
	C444.443878,403.370789 420.998199,413.882935 397.496063,424.267426 
	C395.154816,425.301941 392.469910,425.558746 389.521637,425.855927 
	C389.006714,425.830780 388.491791,425.805603 387.358429,425.399506 
	C386.881470,425.343750 386.404510,425.287994 385.512939,424.900726 
	C385.000214,424.838898 384.487457,424.777100 383.294281,424.286194 
	C381.237061,423.688751 379.179810,423.091309 376.581787,422.105377 
	C374.536255,421.397125 372.483887,420.708099 370.446289,419.977753 
	C338.610626,408.566498 310.958923,390.663330 288.861816,365.061737 
	C250.766983,320.925385 233.967667,269.517944 238.432999,211.278992 
	C238.581253,209.345245 238.638931,207.404541 238.739426,205.455872 
	C234.105713,205.366119 233.948883,205.358444 233.633347,211.807526 
	C229.580322,294.640503 260.585083,360.117157 330.483826,405.958344 
	C344.407349,415.089691 359.540619,422.168915 376.440887,426.716309 
	C378.586456,427.255890 380.731995,427.795502 383.307220,428.726837 
	C383.871674,428.806610 384.436127,428.886414 385.438995,429.204407 
	C385.438995,429.204407 385.937103,429.175537 386.369904,429.540192 
	C386.916168,429.620514 387.462402,429.700806 388.611786,430.098846 
	C389.501740,430.170105 390.391724,430.241364 391.849945,430.832733 
	C398.236847,431.903656 404.623779,432.974579 411.623016,434.273468 
	C412.054535,434.255737 412.486053,434.238037 413.564667,434.556915 
	C416.380402,434.715057 419.196167,434.873199 422.769073,435.255249 
	C423.814423,435.253265 424.859802,435.251312 426.673187,435.553680 
	C433.150726,435.454163 439.628296,435.354614 446.879608,435.404602 
	C447.916595,435.278534 448.953613,435.152466 450.641449,435.232971 
	C453.457916,434.895905 456.274353,434.558838 459.729095,434.342651 
	C460.147034,434.246429 460.564972,434.150177 461.644165,434.235016 
	C466.415649,433.380249 471.187134,432.525452 476.593567,431.733154 
	C477.395569,431.471130 478.197571,431.209137 479.757141,430.998169 
	C482.070526,430.276428 484.383881,429.554718 487.012390,429.030792 
	C487.012390,429.030792 487.335693,428.846619 488.169830,428.858917 
	C489.776794,428.443146 491.404327,428.093719 492.987701,427.601959 
	C549.755737,409.971710 591.236755,374.260925 617.715027,321.249695 
	C628.269470,300.119110 634.780273,277.617828 637.229797,253.229736 
	C637.411133,238.329895 637.615784,223.430252 637.755859,208.530029 
	C637.787109,205.201355 636.285950,204.085846 633.158875,205.658524 
	C633.158875,221.220032 633.158875,236.605438 632.910583,252.756927 
	C632.683472,254.236816 632.456055,255.716675 632.229126,257.196594 
	C622.662903,319.586975 592.109680,368.642548 538.376465,402.187195 
	C523.807373,411.282410 507.491211,417.579102 490.621552,425.822601 
	C489.290161,415.640472 488.199127,407.296600 487.207825,398.463562 
	C487.207825,398.463562 487.015900,398.002747 487.122711,397.236938 
	C486.838043,395.490326 486.553345,393.743744 486.400757,391.242828 
	C486.255859,390.495453 486.110992,389.748047 486.098175,388.297791 
M202.596558,659.354004 
	C187.742676,659.293213 172.888809,659.232483 157.097855,659.075134 
	C127.402061,659.371643 97.706276,659.668152 67.276085,659.621155 
	C56.892361,659.621155 46.508640,659.621155 36.124916,659.621155 
	C36.123608,660.239075 36.122299,660.856995 36.120991,661.474915 
	C46.800793,661.474915 57.480598,661.474915 69.065178,661.615967 
	C79.055046,661.721741 89.044670,661.875183 99.034821,661.924500 
	C132.003799,662.087158 164.972961,662.244934 197.942108,662.253662 
	C199.572784,662.254089 201.203812,660.829224 202.596558,659.354004 
M810.775818,661.732910 
	C819.474365,661.732910 828.172852,661.732910 836.871399,661.732910 
	C836.856628,661.158081 836.841919,660.583313 836.827209,660.008484 
	C827.882324,660.008484 818.937378,660.008484 809.062317,659.889465 
	C782.031311,659.645142 755.000244,659.400818 727.237915,658.829224 
	C709.313965,658.770569 691.390015,658.687073 673.466187,658.713806 
	C672.366577,658.715454 671.268250,659.588867 670.076599,660.816711 
	C671.787170,661.330139 673.496765,662.286255 675.208496,662.290161 
	C699.149353,662.344788 723.090942,662.355347 747.031250,662.199829 
	C767.973572,662.063782 788.914551,661.705444 810.775818,661.732910 
M130.835052,192.013702 
	C131.895126,191.999252 132.955185,191.984787 134.788940,192.212738 
	C148.191132,193.085114 161.593323,193.957489 175.655975,195.012466 
	C176.109100,194.983994 176.562241,194.955505 177.820663,195.127869 
	C195.210571,196.308868 212.600494,197.489883 230.864868,198.880630 
	C234.515518,199.153595 238.162720,199.490784 241.817474,199.687363 
	C252.442062,200.258850 263.164276,201.949158 273.679352,201.102859 
	C313.982819,197.859070 354.220276,193.795715 394.480347,190.016251 
	C395.099091,189.958160 395.691589,189.619797 396.296326,189.412231 
	C395.063995,188.476273 393.971527,188.220596 392.865143,188.122910 
	C370.815887,186.176193 348.769562,184.193909 326.713043,182.332489 
	C308.810669,180.821671 290.895660,179.460403 272.254639,177.790543 
	C271.756470,177.759384 271.257263,177.689240 270.760284,177.702591 
	C192.853989,179.793610 114.947792,181.888458 37.042416,184.013199 
	C36.101852,184.038849 35.171867,184.452393 34.236942,184.684875 
	C35.893761,185.789185 37.454563,186.005081 39.022762,186.105789 
	C47.163609,186.628647 55.306690,187.116455 63.448341,187.626877 
	C85.709534,189.022537 107.970390,190.423447 130.835052,192.013702 
M442.683350,263.696228 
	C441.948425,251.444595 441.213501,239.192963 440.449738,226.460724 
	C426.319611,226.807083 412.634369,227.142548 398.949097,227.477997 
	C398.723083,227.995514 398.497101,228.513031 398.271118,229.030548 
	C403.519958,233.080597 402.184143,238.250778 401.491180,243.345795 
" />
<path fill="#C6A85A" opacity="1.000000" stroke="none" 
	d="
M442.683350,263.696228 
	C441.948425,251.444595 441.213501,239.192963 440.449738,226.460724 
	C426.319611,226.807083 412.634369,227.142548 398.949097,227.477997 
	C398.723083,227.995514 398.497101,228.513031 398.271118,229.030548 
	C403.519958,233.080597 402.184143,238.250778 401.491180,243.345795 
" />
</svg>